<?xml version="1.0" standalone="no"?>
<!DOCTYPE svg PUBLIC "-//W3C//DTD SVG 20010904//EN"
 "http://www.w3.org/TR/2001/REC-SVG-20010904/DTD/svg10.dtd">
<svg version="1.0" xmlns="http://www.w3.org/2000/svg"
 width="380.000000pt" height="380.000000pt" viewBox="0 0 380.000000 380.000000"
 preserveAspectRatio="xMidYMid meet">
<metadata>
Created by potrace 1.14, written by Peter Selinger 2001-2017
</metadata>
<g transform="translate(0.000000,380.000000) scale(0.100000,-0.100000)"
fill="#000000" stroke="none">
<path d="M2814 3398 c-63 -68 -104 -125 -89 -125 7 0 13 3 12 7 -1 4 26 35 61
69 58 58 73 81 54 81 -4 0 -22 -15 -38 -32z"/>
<path d="M2680 3247 c0 -4 -5 -5 -12 -1 -7 4 -8 3 -4 -4 4 -7 11 -12 15 -12 9
0 278 -269 292 -291 6 -10 10 -9 15 5 5 12 2 22 -9 28 -10 5 -64 56 -121 114
-116 117 -147 151 -129 141 7 -5 9 0 6 13 -4 13 -13 19 -29 18 -13 -1 -24 -6
-24 -11z"/>
<path d="M2582 3141 c-34 -33 -62 -65 -62 -72 0 -7 11 -2 26 12 30 28 108 119
102 119 -3 0 -32 -27 -66 -59z"/>
<path d="M3000 2940 c-12 -7 -12 -12 -2 -22 14 -14 16 -32 2 -23 -5 3 -10 2
-10 -3 0 -5 -24 -25 -54 -46 -30 -21 -76 -57 -103 -82 -26 -24 -66 -56 -88
-71 -21 -16 -75 -62 -120 -104 -44 -42 -104 -98 -134 -125 -30 -27 -69 -65
-85 -84 -17 -19 -63 -66 -102 -105 -71 -69 -136 -142 -153 -173 -7 -13 -16
-10 -57 24 -75 62 -110 84 -133 84 -14 0 -21 6 -21 20 0 28 -38 63 -61 57 -10
-3 -19 -1 -19 5 0 5 -4 7 -9 4 -5 -4 -11 0 -14 6 -3 10 -9 8 -23 -4 -17 -17
-17 -18 4 -41 29 -31 28 -42 -7 -42 -21 -1 -27 3 -23 14 3 9 1 12 -5 8 -11 -7
-93 70 -93 87 0 5 -6 3 -13 -3 -11 -8 -19 -5 -36 13 l-23 24 -31 -36 c-18 -20
-68 -78 -112 -127 -86 -98 -187 -212 -222 -253 l-22 -26 24 -22 c17 -15 23
-29 18 -41 -5 -14 -3 -16 7 -6 7 6 19 9 26 6 8 -3 21 7 31 26 10 17 22 31 27
31 6 0 5 -5 -2 -12 -7 -7 -12 -15 -12 -19 0 -13 29 -18 36 -7 5 7 2 8 -6 3 -9
-6 -11 -4 -5 5 6 9 4 11 -5 5 -9 -5 -11 -4 -6 4 4 6 12 9 17 6 5 -4 9 -3 10 2
0 4 2 16 4 25 2 10 -1 21 -7 24 -16 10 -22 -4 -8 -21 13 -16 3 -20 -17 -7 -8
5 -8 13 1 31 8 14 16 19 20 13 3 -6 19 -9 34 -6 21 3 23 2 11 -6 -18 -10 -31
-48 -33 -92 -1 -15 -5 -30 -8 -33 -8 -9 -48 13 -48 26 0 6 -5 7 -11 3 -7 -4 2
-19 23 -42 18 -19 27 -32 20 -28 -18 11 -15 -9 5 -25 11 -10 14 -10 9 -1 -4 7
-2 12 5 12 7 0 9 -10 7 -25 -3 -13 0 -27 6 -29 6 -3 2 -4 -9 -3 -11 1 -22 5
-25 9 -3 3 -18 10 -34 14 -27 6 -29 5 -24 -18 2 -13 -2 -30 -9 -37 -11 -10
-11 -16 -2 -27 16 -19 77 -45 98 -42 9 2 15 -3 13 -10 -1 -8 40 -57 92 -110
53 -53 93 -98 90 -101 -3 -3 -10 2 -15 12 -6 9 -14 17 -19 17 -12 0 -56 -44
-105 -105 -22 -27 -46 -56 -53 -63 -6 -7 -12 -17 -12 -21 0 -5 -27 -38 -59
-75 -32 -37 -76 -94 -98 -127 -21 -33 -60 -87 -87 -122 -26 -34 -66 -93 -89
-132 -22 -38 -61 -102 -86 -140 -25 -39 -57 -93 -70 -122 -15 -34 -28 -50 -37
-46 -8 3 -11 10 -7 16 4 6 1 7 -7 2 -7 -4 -15 -3 -19 2 -3 5 -22 20 -41 33
-38 27 -43 31 -80 61 -14 12 -36 29 -50 38 -14 9 -32 21 -40 28 -72 57 -98 82
-92 87 3 4 -2 4 -13 0 -15 -6 -17 -4 -12 9 6 15 3 16 -14 7 -21 -12 -17 -30 8
-30 9 0 13 -6 10 -14 -4 -10 -1 -13 7 -10 7 3 20 -1 27 -8 8 -7 70 -56 139
-108 145 -109 151 -115 142 -125 -4 -5 -1 -5 5 -1 23 13 32 -3 18 -31 -26 -50
1 -49 63 2 9 8 49 40 88 72 206 170 397 326 544 447 l165 135 22 -21 c13 -12
23 -27 23 -35 0 -7 4 -13 9 -13 13 0 106 -92 114 -113 3 -9 13 -17 21 -17 8 0
23 -11 34 -25 11 -14 23 -25 28 -25 4 0 30 -18 58 -39 98 -75 136 -87 175 -57
38 29 30 67 -27 128 l-25 27 26 44 c32 54 68 79 110 77 51 -3 52 -2 71 40 28
64 99 110 172 110 19 0 21 4 17 36 -8 58 22 120 76 159 l46 34 0 61 c0 59 2
63 41 100 23 21 39 42 35 46 -3 5 8 -1 24 -11 51 -33 98 -55 116 -55 20 0 59
45 59 69 0 18 -45 75 -107 139 -24 24 -43 46 -43 50 0 4 -10 12 -22 17 -13 6
-22 16 -21 23 2 6 -6 16 -17 22 -11 6 -20 8 -20 5 0 -7 -88 61 -105 80 -5 7
-24 19 -42 28 -17 9 -34 21 -38 26 -3 6 118 208 270 451 151 243 282 454 290
469 18 35 9 46 -22 26 -24 -16 -48 -12 -38 6 8 11 4 11 -15 -1z m-1370 -628
c0 -10 -6 -19 -14 -19 -11 0 -14 12 -7 35 4 11 21 -2 21 -16z m58 -42 c6 0 13
-9 17 -19 3 -11 11 -22 18 -24 7 -2 5 -3 -4 -2 -11 2 -16 -5 -15 -19 1 -18
-28 -51 -44 -50 -3 0 -12 -9 -21 -20 -12 -15 -18 -16 -24 -6 -6 9 -4 11 5 5 9
-6 11 -4 5 5 -5 9 -4 11 3 6 7 -4 10 -2 7 6 -3 7 4 19 15 26 13 8 20 8 20 1 0
-5 5 -7 10 -4 6 3 8 17 6 30 -3 13 0 25 7 28 13 4 0 27 -16 27 -8 0 -8 -3 2
-9 9 -6 10 -11 2 -15 -6 -4 -11 -2 -11 5 0 10 -3 10 -12 1 -15 -15 -28 -16
-28 -2 0 6 6 10 14 10 8 0 18 5 21 11 4 6 0 9 -10 7 -10 -2 -20 3 -22 10 -3 6
0 12 7 12 6 0 8 6 5 13 -4 6 2 2 13 -10 11 -13 25 -23 30 -23z m-78 16 c0 5 5
2 10 -6 5 -8 8 -22 5 -30 -2 -8 3 -26 11 -40 12 -21 14 -22 12 -5 -2 12 3 20
11 20 8 0 15 -8 17 -18 1 -9 -1 -15 -6 -12 -5 3 -22 -8 -38 -25 -35 -35 -42
-37 -37 -12 2 10 -1 25 -5 32 -10 16 -40 23 -40 9 0 -11 -36 -6 -47 6 -5 4 -3
6 2 3 6 -4 26 16 45 42 26 36 38 46 48 38 6 -6 12 -7 12 -2z m111 -13 l24 -28
-30 25 c-16 14 -32 26 -34 28 -2 1 0 2 6 2 5 0 20 -12 34 -27z m-216 -100 c-2
-10 -4 -20 -4 -23 -1 -3 -5 2 -10 10 -10 15 -6 30 9 30 4 0 7 -8 5 -17z m39
-22 c-7 -7 -34 21 -28 31 3 5 12 1 19 -9 7 -10 12 -20 9 -22z m26 14 c0 -14
-5 -25 -11 -25 -5 0 -8 4 -4 9 3 5 1 12 -5 16 -12 7 -4 25 11 25 5 0 9 -11 9
-25z m-85 -15 c5 -8 11 -8 20 0 9 7 16 6 25 -5 7 -8 19 -15 27 -15 10 0 14 -7
10 -20 -3 -10 0 -21 7 -23 8 -3 7 -8 -2 -20 -8 -9 -19 -14 -26 -11 -17 7 -16
32 1 38 8 3 11 10 8 16 -4 7 -13 6 -27 -1 -14 -8 -18 -8 -14 0 5 7 0 9 -11 5
-10 -3 -7 1 7 10 l25 15 -32 -4 c-18 -2 -37 -6 -43 -10 -12 -7 -12 -3 -4 19 7
18 20 21 29 6z m-12 -29 c12 7 17 7 13 1 -7 -12 20 -36 32 -28 5 3 9 -1 9 -9
0 -8 -7 -17 -14 -19 -9 -4 -12 -1 -8 7 4 6 -1 3 -11 -8 -14 -17 -16 -18 -10
-2 3 11 2 16 -4 12 -6 -4 -10 -3 -9 2 3 19 -2 30 -16 30 -8 0 -11 -5 -8 -10 3
-6 1 -7 -5 -3 -7 4 -10 2 -6 -7 3 -8 -2 -20 -11 -27 -11 -9 -15 -9 -15 -1 0 7
-5 9 -11 5 -8 -4 -7 -9 2 -15 7 -4 17 -5 21 -3 4 3 8 -3 8 -12 0 -10 -3 -14
-7 -11 -3 4 -13 1 -21 -6 -13 -10 -15 -9 -9 5 3 10 1 20 -5 24 -7 5 -8 2 -3
-6 6 -9 4 -11 -5 -5 -9 6 -11 4 -5 -5 5 -9 4 -11 -3 -6 -8 5 -10 2 -6 -8 3 -9
1 -16 -5 -16 -22 0 -10 28 29 68 22 22 40 46 40 53 0 10 3 10 12 1 8 -8 17 -8
31 -1z m140 -6 c4 -8 1 -17 -5 -21 -7 -4 -8 -3 -4 4 4 7 2 12 -3 12 -6 0 -11
5 -11 10 0 15 17 12 23 -5z m-146 -37 c0 -7 4 -22 8 -33 5 -14 4 -16 -3 -6 -7
9 -12 10 -16 2 -6 -10 0 -13 20 -10 4 0 10 -4 14 -10 4 -8 13 -4 25 11 11 13
13 17 5 11 -16 -15 -30 -17 -30 -4 0 13 32 23 42 13 6 -6 3 -16 -7 -25 -9 -9
-15 -20 -15 -24 0 -4 -14 -9 -31 -11 -25 -3 -30 0 -26 12 4 10 1 13 -8 9 -8
-3 -12 -9 -9 -14 3 -5 -2 -10 -10 -10 -9 -1 -20 -3 -26 -4 -5 -1 -14 -3 -20
-4 -13 -1 -41 -57 -33 -65 4 -3 1 -6 -6 -6 -7 0 -10 -4 -7 -8 7 -12 -12 -38
-21 -29 -4 5 -1 12 7 17 12 8 12 10 1 10 -11 0 -11 3 0 17 12 14 12 16 0 9 -9
-6 -12 -5 -9 5 3 8 10 13 16 12 16 -4 35 34 22 42 -6 4 -10 3 -9 -2 3 -20 -2
-34 -11 -28 -6 4 -7 11 -4 17 4 7 2 8 -5 4 -6 -4 -8 -12 -5 -18 5 -7 2 -8 -6
-3 -9 6 -11 4 -5 -5 5 -9 4 -11 -3 -6 -13 8 -17 -6 -5 -18 10 -10 12 -35 3
-41 -4 -2 -15 4 -25 15 -16 18 -16 20 2 44 10 14 28 30 40 37 12 7 19 17 16
23 -4 6 1 5 10 -3 14 -11 20 -11 32 -1 8 7 15 9 15 6 0 -4 6 -4 13 1 11 7 16
9 35 12 12 1 11 31 0 31 -5 0 -6 5 -3 10 4 6 11 8 16 5 5 -3 6 1 3 9 -3 9 -2
16 3 16 5 0 10 -6 10 -12z m718 -8 c3 -5 2 -10 -4 -10 -5 0 -13 5 -16 10 -3 6
-2 10 4 10 5 0 13 -4 16 -10z m-733 -155 c-15 -25 -29 -40 -31 -33 -2 7 1 14
8 16 6 2 9 8 5 13 -3 5 0 9 5 9 6 0 11 6 11 14 0 12 7 18 27 25 1 1 -10 -19
-25 -44z m1028 -95 c28 -27 50 -55 50 -63 0 -7 5 -18 11 -24 8 -8 8 -20 2 -40
-6 -15 -9 -39 -8 -52 1 -19 -7 -27 -42 -43 -48 -21 -64 -18 -42 8 7 8 13 36
14 61 0 39 -4 48 -37 77 -45 40 -55 73 -31 103 10 13 22 23 26 23 4 0 30 -22
57 -50z m-1030 -160 c0 -5 -2 -10 -4 -10 -3 0 -8 5 -11 10 -3 6 -1 10 4 10 6
0 11 -4 11 -10z m1260 -40 c0 -5 -2 -10 -4 -10 -3 0 -8 5 -11 10 -3 6 -1 10 4
10 6 0 11 -4 11 -10z m-310 -115 c-12 -13 -27 -22 -33 -18 -6 4 -1 14 12 25
34 26 48 22 21 -7z m-210 -228 c0 -8 -9 -22 -20 -32 -23 -21 -25 -16 -8 20 12
27 28 34 28 12z m-242 -87 c42 -33 52 -38 59 -26 6 11 16 13 34 8 45 -12 21
-46 -48 -69 l-58 -20 -57 44 c-62 48 -67 57 -41 85 25 28 56 22 111 -22z m131
-91 c-16 -10 -23 -4 -14 10 3 6 11 8 17 5 6 -4 5 -9 -3 -15z"/>
<path d="M1563 2252 c-25 -35 -39 -63 -19 -38 12 15 16 16 16 5 0 -12 2 -12 9
1 6 8 8 17 5 21 -2 4 3 10 12 13 24 9 31 7 14 -4 -13 -9 -13 -11 0 -20 14 -9
7 -15 -15 -10 -5 1 -1 -8 9 -19 10 -11 15 -25 11 -33 -4 -7 0 -5 10 4 13 12
15 21 8 30 -6 7 -9 23 -8 36 1 13 -6 27 -15 32 -13 7 -22 3 -37 -18z"/>
<path d="M1550 2080 c0 -5 5 -10 11 -10 5 0 7 5 4 10 -3 6 -8 10 -11 10 -2 0
-4 -4 -4 -10z"/>
<path d="M1270 1922 c0 -5 6 -15 14 -21 12 -10 14 -9 12 5 -3 19 -26 33 -26
16z"/>
<path d="M1830 2336 c0 -2 8 -10 18 -17 15 -13 16 -12 3 4 -13 16 -21 21 -21
13z"/>
<path d="M1771 2294 c0 -11 3 -14 6 -6 3 7 2 16 -1 19 -3 4 -6 -2 -5 -13z"/>
<path d="M1347 1855 c3 -8 9 -13 13 -10 5 3 10 0 12 -7 3 -8 6 -9 11 -1 3 5
-5 15 -18 21 -20 9 -23 9 -18 -3z"/>
<path d="M1293 1842 c4 -6 22 -21 39 -34 17 -12 28 -17 25 -10 -4 6 -22 21
-39 34 -17 12 -28 17 -25 10z"/>
<path d="M580 849 c-33 -42 -40 -47 -35 -26 4 15 4 27 1 27 -10 0 -38 -71 -32
-78 3 -3 6 0 6 6 0 7 6 12 13 12 19 0 111 97 98 104 -5 4 -29 -17 -51 -45z"/>
<path d="M451 706 c-6 -7 -7 -17 -3 -21 4 -5 2 -5 -4 -2 -15 9 -104 -80 -98
-97 4 -10 17 -3 42 23 20 20 34 32 30 27 -13 -16 -9 -26 7 -20 8 3 25 25 39
49 18 33 21 45 11 49 -8 3 -18 -1 -24 -8z"/>
</g>
</svg>
